<?xml version="1.0" encoding="utf-8" standalone="no"?>
<!DOCTYPE svg PUBLIC "-//W3C//DTD SVG 1.1//EN"
  "http://www.w3.org/Graphics/SVG/1.1/DTD/svg11.dtd">
<svg xmlns:xlink="http://www.w3.org/1999/xlink" width="1059.84pt" height="194.4pt" viewBox="0 0 1059.84 194.4" xmlns="http://www.w3.org/2000/svg" version="1.1">
 <metadata>
  <rdf:RDF xmlns:dc="http://purl.org/dc/elements/1.1/" xmlns:cc="http://creativecommons.org/ns#" xmlns:rdf="http://www.w3.org/1999/02/22-rdf-syntax-ns#">
   <cc:Work>
    <dc:type rdf:resource="http://purl.org/dc/dcmitype/StillImage"/>
    <dc:date>2025-09-21T03:29:36.857188</dc:date>
    <dc:format>image/svg+xml</dc:format>
    <dc:creator>
     <cc:Agent>
      <dc:title>Matplotlib v3.9.2, https://matplotlib.org/</dc:title>
     </cc:Agent>
    </dc:creator>
   </cc:Work>
  </rdf:RDF>
 </metadata>
 <defs>
  <style type="text/css">*{stroke-linejoin: round; stroke-linecap: butt}</style>
 </defs>
 <g id="figure_1">
  <g id="patch_1">
   <path d="M 0 194.4 
L 1059.84 194.4 
L 1059.84 0 
L 0 0 
L 0 194.4 
z
" style="fill: none"/>
  </g>
  <g id="axes_1">
   <g id="line2d_1">
    <path d="M 0 97.2 
L 1.05984 8.836364 
L 51.93216 8.836364 
L 52.992 185.563636 
L 104.92416 185.563636 
L 105.984 8.836364 
L 157.91616 8.836364 
L 158.976 185.563636 
L 210.90816 185.563636 
L 211.968 8.836364 
L 263.90016 8.836364 
L 264.96 185.563636 
L 316.89216 185.563636 
L 317.952 8.836364 
L 369.88416 8.836364 
L 370.944 185.563636 
L 422.87616 185.563636 
L 423.936 8.836364 
L 475.86816 8.836364 
L 476.928 185.563636 
L 528.86016 185.563636 
L 529.92 8.836364 
L 581.85216 8.836364 
L 582.912 185.563636 
L 634.84416 185.563636 
L 635.904 8.836364 
L 687.83616 8.836364 
L 688.896 185.563636 
L 740.82816 185.563636 
L 741.888 8.836364 
L 793.82016 8.836364 
L 794.88 185.563636 
L 846.81216 185.563636 
L 847.872 8.836364 
L 899.80416 8.836364 
L 900.864 185.563636 
L 952.79616 185.563636 
L 953.856 8.836364 
L 1005.78816 8.836364 
L 1006.848 185.563636 
L 1058.78016 185.563636 
L 1058.78016 185.563636 
" clip-path="url(#p633946e0a7)" style="fill: none; stroke: #00ff00; stroke-opacity: 0.15; stroke-linecap: square"/>
   </g>
   <g id="line2d_2">
    <path d="M 0 97.2 
L 452.55168 97.2 
L 453.61152 95.665909 
L 458.91072 91.907386 
L 481.16736 77.540909 
L 507.66336 61.915909 
L 529.92 52.327841 
L 540.5184 48.569318 
L 544.75776 47.342045 
L 552.17664 46.575 
L 557.47584 45.040909 
L 568.07424 43.506818 
L 574.43328 41.780966 
L 579.73248 40.745455 
L 592.45056 37.881818 
L 604.1088 35.069318 
L 609.408 32.768182 
L 613.64736 32.768182 
L 616.82688 32.001136 
L 629.54496 31.234091 
L 646.5024 33.535227 
L 658.16064 36.603409 
L 664.51968 37.370455 
L 665.57952 37.370455 
L 668.75904 38.904545 
L 686.77632 51.944318 
L 696.31488 62.682955 
L 704.7936 73.750325 
L 710.0928 80.325 
L 715.392 84.160227 
L 718.57152 85.694318 
L 735.52896 85.694318 
L 736.5888 96.432955 
L 737.64864 97.2 
L 1058.78016 97.2 
L 1058.78016 97.2 
" clip-path="url(#p633946e0a7)" style="fill: none; stroke: #00ff00; stroke-width: 2; stroke-linecap: square"/>
   </g>
   <g id="line2d_3">
    <path d="M 0 97.2 
L 453.61152 97.2 
L 454.67136 109.472727 
L 456.79104 111.006818 
L 457.85088 111.006818 
L 463.15008 114.842045 
L 465.26976 115.609091 
L 468.44928 117.910227 
L 471.6288 118.677273 
L 473.74848 120.978409 
L 475.86816 122.5125 
L 477.98784 127.114773 
L 482.2272 133.059375 
L 485.40672 137.086364 
L 490.70592 142.455682 
L 494.94528 144.756818 
L 500.24448 152.427273 
L 503.424 156.2625 
L 504.48384 160.097727 
L 505.54368 161.631818 
L 506.60352 164.7 
L 508.7232 168.535227 
L 510.84288 170.069318 
L 512.96256 172.370455 
L 515.08224 173.1375 
L 516.14208 173.904545 
L 520.38144 175.438636 
L 523.56096 176.205682 
L 533.09952 176.205682 
L 543.69792 173.904545 
L 556.416 169.302273 
L 560.65536 168.535227 
L 574.43328 163.932955 
L 586.09152 161.631818 
L 601.98912 159.330682 
L 607.28832 159.330682 
L 617.88672 157.711364 
L 627.42528 157.029545 
L 636.96384 157.029545 
L 648.62208 158.819318 
L 652.86144 159.586364 
L 659.22048 161.018182 
L 668.75904 162.398864 
L 680.41728 162.398864 
L 692.07552 159.790909 
L 696.31488 158.563636 
L 705.85344 153.961364 
L 712.21248 149.359091 
L 722.81088 139.3875 
L 732.34944 121.745455 
L 736.5888 107.938636 
L 737.64864 97.2 
L 1058.78016 97.2 
L 1058.78016 97.2 
" clip-path="url(#p633946e0a7)" style="fill: none; stroke: #00ff00; stroke-width: 2; stroke-linecap: square"/>
   </g>
   <g id="legend_1">
    <g id="patch_2">
     <path d="M 975.95875 37.35625 
L 1052.84 37.35625 
Q 1054.84 37.35625 1054.84 35.35625 
L 1054.84 7 
Q 1054.84 5 1052.84 5 
L 975.95875 5 
Q 973.95875 5 973.95875 7 
L 973.95875 35.35625 
Q 973.95875 37.35625 975.95875 37.35625 
z
" style="fill: #ffffff; opacity: 0.5; stroke: #cccccc; stroke-linejoin: miter"/>
    </g>
    <g id="line2d_4">
     <path d="M 977.95875 13.098437 
L 987.95875 13.098437 
L 997.95875 13.098437 
" style="fill: none; stroke: #00ff00; stroke-width: 2; stroke-linecap: square"/>
    </g>
    <g id="text_1">
     <!-- Positive -->
     <g transform="translate(1005.95875 16.598437) scale(0.1 -0.1)">
      <defs>
       <path id="DejaVuSans-50" d="M 1259 4147 
L 1259 2394 
L 2053 2394 
Q 2494 2394 2734 2622 
Q 2975 2850 2975 3272 
Q 2975 3691 2734 3919 
Q 2494 4147 2053 4147 
L 1259 4147 
z
M 628 4666 
L 2053 4666 
Q 2838 4666 3239 4311 
Q 3641 3956 3641 3272 
Q 3641 2581 3239 2228 
Q 2838 1875 2053 1875 
L 1259 1875 
L 1259 0 
L 628 0 
L 628 4666 
z
" transform="scale(0.015625)"/>
       <path id="DejaVuSans-6f" d="M 1959 3097 
Q 1497 3097 1228 2736 
Q 959 2375 959 1747 
Q 959 1119 1226 758 
Q 1494 397 1959 397 
Q 2419 397 2687 759 
Q 2956 1122 2956 1747 
Q 2956 2369 2687 2733 
Q 2419 3097 1959 3097 
z
M 1959 3584 
Q 2709 3584 3137 3096 
Q 3566 2609 3566 1747 
Q 3566 888 3137 398 
Q 2709 -91 1959 -91 
Q 1206 -91 779 398 
Q 353 888 353 1747 
Q 353 2609 779 3096 
Q 1206 3584 1959 3584 
z
" transform="scale(0.015625)"/>
       <path id="DejaVuSans-73" d="M 2834 3397 
L 2834 2853 
Q 2591 2978 2328 3040 
Q 2066 3103 1784 3103 
Q 1356 3103 1142 2972 
Q 928 2841 928 2578 
Q 928 2378 1081 2264 
Q 1234 2150 1697 2047 
L 1894 2003 
Q 2506 1872 2764 1633 
Q 3022 1394 3022 966 
Q 3022 478 2636 193 
Q 2250 -91 1575 -91 
Q 1294 -91 989 -36 
Q 684 19 347 128 
L 347 722 
Q 666 556 975 473 
Q 1284 391 1588 391 
Q 1994 391 2212 530 
Q 2431 669 2431 922 
Q 2431 1156 2273 1281 
Q 2116 1406 1581 1522 
L 1381 1569 
Q 847 1681 609 1914 
Q 372 2147 372 2553 
Q 372 3047 722 3315 
Q 1072 3584 1716 3584 
Q 2034 3584 2315 3537 
Q 2597 3491 2834 3397 
z
" transform="scale(0.015625)"/>
       <path id="DejaVuSans-69" d="M 603 3500 
L 1178 3500 
L 1178 0 
L 603 0 
L 603 3500 
z
M 603 4863 
L 1178 4863 
L 1178 4134 
L 603 4134 
L 603 4863 
z
" transform="scale(0.015625)"/>
       <path id="DejaVuSans-74" d="M 1172 4494 
L 1172 3500 
L 2356 3500 
L 2356 3053 
L 1172 3053 
L 1172 1153 
Q 1172 725 1289 603 
Q 1406 481 1766 481 
L 2356 481 
L 2356 0 
L 1766 0 
Q 1100 0 847 248 
Q 594 497 594 1153 
L 594 3053 
L 172 3053 
L 172 3500 
L 594 3500 
L 594 4494 
L 1172 4494 
z
" transform="scale(0.015625)"/>
       <path id="DejaVuSans-76" d="M 191 3500 
L 800 3500 
L 1894 563 
L 2988 3500 
L 3597 3500 
L 2284 0 
L 1503 0 
L 191 3500 
z
" transform="scale(0.015625)"/>
       <path id="DejaVuSans-65" d="M 3597 1894 
L 3597 1613 
L 953 1613 
Q 991 1019 1311 708 
Q 1631 397 2203 397 
Q 2534 397 2845 478 
Q 3156 559 3463 722 
L 3463 178 
Q 3153 47 2828 -22 
Q 2503 -91 2169 -91 
Q 1331 -91 842 396 
Q 353 884 353 1716 
Q 353 2575 817 3079 
Q 1281 3584 2069 3584 
Q 2775 3584 3186 3129 
Q 3597 2675 3597 1894 
z
M 3022 2063 
Q 3016 2534 2758 2815 
Q 2500 3097 2075 3097 
Q 1594 3097 1305 2825 
Q 1016 2553 972 2059 
L 3022 2063 
z
" transform="scale(0.015625)"/>
      </defs>
      <use xlink:href="#DejaVuSans-50"/>
      <use xlink:href="#DejaVuSans-6f" x="56.677734"/>
      <use xlink:href="#DejaVuSans-73" x="117.859375"/>
      <use xlink:href="#DejaVuSans-69" x="169.958984"/>
      <use xlink:href="#DejaVuSans-74" x="197.742188"/>
      <use xlink:href="#DejaVuSans-69" x="236.951172"/>
      <use xlink:href="#DejaVuSans-76" x="264.734375"/>
      <use xlink:href="#DejaVuSans-65" x="323.914062"/>
     </g>
    </g>
    <g id="line2d_5">
     <path d="M 977.95875 27.776562 
L 987.95875 27.776562 
L 997.95875 27.776562 
" style="fill: none; stroke: #00ff00; stroke-width: 2; stroke-linecap: square"/>
    </g>
    <g id="text_2">
     <!-- Negative -->
     <g transform="translate(1005.95875 31.276562) scale(0.1 -0.1)">
      <defs>
       <path id="DejaVuSans-4e" d="M 628 4666 
L 1478 4666 
L 3547 763 
L 3547 4666 
L 4159 4666 
L 4159 0 
L 3309 0 
L 1241 3903 
L 1241 0 
L 628 0 
L 628 4666 
z
" transform="scale(0.015625)"/>
       <path id="DejaVuSans-67" d="M 2906 1791 
Q 2906 2416 2648 2759 
Q 2391 3103 1925 3103 
Q 1463 3103 1205 2759 
Q 947 2416 947 1791 
Q 947 1169 1205 825 
Q 1463 481 1925 481 
Q 2391 481 2648 825 
Q 2906 1169 2906 1791 
z
M 3481 434 
Q 3481 -459 3084 -895 
Q 2688 -1331 1869 -1331 
Q 1566 -1331 1297 -1286 
Q 1028 -1241 775 -1147 
L 775 -588 
Q 1028 -725 1275 -790 
Q 1522 -856 1778 -856 
Q 2344 -856 2625 -561 
Q 2906 -266 2906 331 
L 2906 616 
Q 2728 306 2450 153 
Q 2172 0 1784 0 
Q 1141 0 747 490 
Q 353 981 353 1791 
Q 353 2603 747 3093 
Q 1141 3584 1784 3584 
Q 2172 3584 2450 3431 
Q 2728 3278 2906 2969 
L 2906 3500 
L 3481 3500 
L 3481 434 
z
" transform="scale(0.015625)"/>
       <path id="DejaVuSans-61" d="M 2194 1759 
Q 1497 1759 1228 1600 
Q 959 1441 959 1056 
Q 959 750 1161 570 
Q 1363 391 1709 391 
Q 2188 391 2477 730 
Q 2766 1069 2766 1631 
L 2766 1759 
L 2194 1759 
z
M 3341 1997 
L 3341 0 
L 2766 0 
L 2766 531 
Q 2569 213 2275 61 
Q 1981 -91 1556 -91 
Q 1019 -91 701 211 
Q 384 513 384 1019 
Q 384 1609 779 1909 
Q 1175 2209 1959 2209 
L 2766 2209 
L 2766 2266 
Q 2766 2663 2505 2880 
Q 2244 3097 1772 3097 
Q 1472 3097 1187 3025 
Q 903 2953 641 2809 
L 641 3341 
Q 956 3463 1253 3523 
Q 1550 3584 1831 3584 
Q 2591 3584 2966 3190 
Q 3341 2797 3341 1997 
z
" transform="scale(0.015625)"/>
      </defs>
      <use xlink:href="#DejaVuSans-4e"/>
      <use xlink:href="#DejaVuSans-65" x="74.804688"/>
      <use xlink:href="#DejaVuSans-67" x="136.328125"/>
      <use xlink:href="#DejaVuSans-61" x="199.804688"/>
      <use xlink:href="#DejaVuSans-74" x="261.083984"/>
      <use xlink:href="#DejaVuSans-69" x="300.292969"/>
      <use xlink:href="#DejaVuSans-76" x="328.076172"/>
      <use xlink:href="#DejaVuSans-65" x="387.255859"/>
     </g>
    </g>
   </g>
  </g>
 </g>
 <defs>
  <clipPath id="p633946e0a7">
   <rect x="0" y="-0" width="1059.84" height="194.4"/>
  </clipPath>
 </defs>
</svg>
